<?xml version="1.0" encoding="UTF-8" standalone="no"?>
<!DOCTYPE svg PUBLIC "-//W3C//DTD SVG 1.1//EN" "http://www.w3.org/Graphics/SVG/1.1/DTD/svg11.dtd">
<svg stroke-miterlimit="10" style="fill-rule:nonzero;clip-rule:evenodd;stroke-linecap:round;stroke-linejoin:round;" version="1.1" viewBox="0 0 570 570" xml:space="preserve" xmlns="http://www.w3.org/2000/svg" xmlns:xlink="http://www.w3.org/1999/xlink">
<defs/>
<g id="Untitled"/>
<g id="Layer-1">
<path d="M416 358C416 351.35 421.35 346 428 346C434.65 346 440 351.35 440 358L440 419.6L482.65 448C488.15 451.7 489.65 459.15 485.55 464.65C482.3 470.15 474.85 471.65 469.35 467.55L421.35 435.55C418 433.75 416 430 416 425.55L416 358ZM428 298C498.7 298 556 355.3 556 426C556 496.7 498.7 554 428 554C357.3 554 300 496.7 300 426C300 355.3 357.3 298 428 298ZM324 426C324 483.45 370.55 530 428 530C485.45 530 532 483.45 532 426C532 368.55 485.45 322 428 322C370.55 322 324 368.55 324 426Z" fill="#d3d3d6" fill-rule="nonzero" opacity="1" stroke="none"/>
<path d="M322.356 31.8363L281.474 72.7151L391.28 182.513L432.162 141.635C453.279 120.52 453.279 86.3132 432.162 65.1981L398.883 31.8363C377.766 10.7212 343.557 10.7212 322.44 31.8363L322.356 31.8363ZM262.384 91.8031L65.4917 288.765C56.7072 297.548 50.2877 308.444 46.7401 320.353L16.8388 421.958C14.7271 429.138 16.6699 436.823 21.9068 442.06C27.1438 447.297 34.8303 449.239 41.9255 447.212L143.539 417.313C155.449 413.766 166.345 407.347 175.13 398.563L372.191 201.602C372.191 201.602 262.384 91.8031 262.384 91.8031Z" fill="#d3d3d6" fill-rule="nonzero" opacity="1" stroke="none"/>
</g>
</svg>
