<svg viewBox="0 0 570 570" xmlns="http://www.w3.org/2000/svg">
    <path
        d="M232.923 44.9231C232.923 28.925 219.998 16 204 16C188.002 16 175.077 28.925 175.077 44.9231L175.077 175.077L44.9231 175.077C28.925 175.077 16 188.002 16 204C16 219.998 28.925 232.923 44.9231 232.923L175.077 232.923L175.077 363.077C175.077 379.075 188.002 392 204 392C219.998 392 232.923 379.075 232.923 363.077L232.923 232.923L363.077 232.923C379.075 232.923 392 219.998 392 204C392 188.002 379.075 175.077 363.077 175.077L232.923 175.077L232.923 44.9231Z"
        fill="#d3d3d6" fill-rule="nonzero" opacity="1" stroke="none" />
    <path
        d="M416 358C416 351.35 421.35 346 428 346C434.65 346 440 351.35 440 358L440 419.6L482.65 448C488.15 451.7 489.65 459.15 485.55 464.65C482.3 470.15 474.85 471.65 469.35 467.55L421.35 435.55C418 433.75 416 430 416 425.55L416 358ZM428 298C498.7 298 556 355.3 556 426C556 496.7 498.7 554 428 554C357.3 554 300 496.7 300 426C300 355.3 357.3 298 428 298ZM324 426C324 483.45 370.55 530 428 530C485.45 530 532 483.45 532 426C532 368.55 485.45 322 428 322C370.55 322 324 368.55 324 426Z"
        fill="#d3d3d6" fill-rule="nonzero" opacity="1" stroke="none" />
</svg>