<svg xmlns="http://www.w3.org/2000/svg" viewBox="0 0 840 840">
    <path fill="#d3d3d6"
        d="M787.935 79.6611C787.935 61.9834 773.581 47.6292 755.903 47.6292L529.629 47.6292C511.951 47.6292 497.597 61.9834 497.597 79.6611C497.597 97.3388 511.951 111.693 529.629 111.693L678.758 111.622L461.818 328.563C449.302 341.078 449.302 361.302 461.818 373.818C474.333 386.333 494.557 386.333 507.072 373.818L723.942 156.948L724.013 305.935C724.013 323.613 738.367 337.967 756.045 337.967C773.722 337.967 788.077 323.613 788.077 305.935L788.077 79.6611L787.935 79.6611Z" />
    <path fill="#d3d3d6"
        d="M52.0648 756.339C52.0648 774.017 66.4191 788.371 84.0968 788.371L310.371 788.371C328.049 788.371 342.403 774.017 342.403 756.339C342.403 738.661 328.049 724.307 310.371 724.307L161.242 724.378L378.182 507.437C390.698 494.922 390.698 474.698 378.182 462.182C365.667 449.667 345.443 449.667 332.928 462.182L116.058 679.052L115.987 530.065C115.987 512.387 101.633 498.033 83.9553 498.033C66.2777 498.033 51.9234 512.387 51.9234 530.065L51.9234 756.339L52.0648 756.339Z" />
</svg>