<svg xmlns="http://www.w3.org/2000/svg" viewBox="0 0 840 840">
    <path fill="#d3d3d6"
        d="M452.466 351.208C452.466 368.885 466.82 383.24 484.498 383.24L710.772 383.24C728.45 383.24 742.804 368.885 742.804 351.208C742.804 333.53 728.45 319.176 710.772 319.176L561.643 319.247L778.584 102.306C791.099 89.7904 791.099 69.5672 778.584 57.0514C766.068 44.5356 745.845 44.5356 733.329 57.0514L516.459 273.921L516.389 124.934C516.389 107.256 502.034 92.9017 484.357 92.9017C466.679 92.9017 452.325 107.256 452.325 124.934L452.325 351.208L452.466 351.208Z" />
    <path fill="#d3d3d6"
        d="M387.534 484.792C387.534 467.115 373.18 452.76 355.502 452.76L129.228 452.76C111.55 452.76 97.1959 467.115 97.1959 484.792C97.1959 502.47 111.55 516.824 129.228 516.824L278.357 516.753L61.4163 733.694C48.9005 746.21 48.9005 766.433 61.4163 778.949C73.9321 791.464 94.1553 791.464 106.671 778.949L323.541 562.079L323.611 711.066C323.611 728.744 337.966 743.098 355.643 743.098C373.321 743.098 387.675 728.744 387.675 711.066L387.675 484.792L387.534 484.792Z" />
</svg>