<svg xmlns="http://www.w3.org/2000/svg" viewBox="0 0 512 512">
    <path fill="#d3d3d6"
        d="M267.99 319.985C267.99 342.931 275.44 364.128 287.991 381.326L224.688 444.667C218.437 450.916 218.437 461.064 224.688 467.313C230.938 473.562 241.089 473.562 247.339 467.313L310.642 403.972C327.843 416.571 349.044 423.97 371.995 423.97C429.448 423.97 476 377.426 476 319.985C476 262.543 429.448 216 371.995 216C314.542 216 267.99 262.543 267.99 319.985ZM371.995 391.974C332.228 391.974 299.991 359.743 299.991 319.985C299.991 280.226 332.228 247.995 371.995 247.995C411.761 247.995 443.998 280.226 443.998 319.985C443.998 359.743 411.761 391.974 371.995 391.974Z" />
    <path fill="#d3d3d6"
        d="M224.59 239.524C233.793 239.524 241.266 232.051 241.266 222.847L241.266 105.042C241.266 95.8386 233.793 88.3654 224.59 88.3654C215.386 88.3654 207.913 95.8386 207.913 105.042L207.95 182.683L95.0041 69.7374C88.488 63.2213 77.9592 63.2213 71.4431 69.7374C64.927 76.2535 64.927 86.7824 71.4431 93.2985L184.352 206.207L106.785 206.244C97.5811 206.244 90.1078 213.717 90.1078 222.921C90.1078 232.124 97.5811 239.598 106.785 239.598L224.59 239.598L224.59 239.524Z" />
</svg>