<svg xmlns="http://www.w3.org/2000/svg" viewBox="0 0 512 512">
    <path fill="#d3d3d6"
        d="M267.99 319.985C267.99 342.931 275.44 364.128 287.991 381.326L224.688 444.667C218.437 450.916 218.437 461.064 224.688 467.313C230.938 473.562 241.089 473.562 247.339 467.313L310.642 403.972C327.843 416.571 349.044 423.97 371.995 423.97C429.448 423.97 476 377.426 476 319.985C476 262.543 429.448 216 371.995 216C314.542 216 267.99 262.543 267.99 319.985ZM371.995 391.974C332.228 391.974 299.991 359.743 299.991 319.985C299.991 280.226 332.228 247.995 371.995 247.995C411.761 247.995 443.998 280.226 443.998 319.985C443.998 359.743 411.761 391.974 371.995 391.974Z" />
    <path fill="#d3d3d6"
        d="M83.2144 64.8688C74.0108 64.8688 66.5376 72.342 66.5376 81.5456L66.5376 199.351C66.5376 208.554 74.0108 216.027 83.2144 216.027C92.4179 216.027 99.8912 208.554 99.8912 199.351L99.8543 121.71L212.8 234.655C219.316 241.171 229.845 241.171 236.361 234.655C242.877 228.139 242.877 217.61 236.361 211.094L123.452 98.1855L201.019 98.1487C210.223 98.1487 217.696 90.6755 217.696 81.4719C217.696 72.2684 210.223 64.7951 201.019 64.7951L83.2144 64.7951L83.2144 64.8688Z" />
</svg>